<svg width="49" height="59" viewBox="0 0 49 59" fill="none" xmlns="http://www.w3.org/2000/svg">
<mask id="path-1-inside-1" fill="white">
<path fill-rule="evenodd" clip-rule="evenodd" d="M38.2699 0H9.71212V35.523H0L24.4302 58.5086L48.8604 35.523H38.2699V0Z"/>
</mask>
<path d="M9.71212 0V-0.7H9.01212V0H9.71212ZM38.2699 0H38.9699V-0.7H38.2699V0ZM9.71212 35.523V36.223H10.4121V35.523H9.71212ZM0 35.523V34.823H-1.76553L-0.479672 36.0329L0 35.523ZM24.4302 58.5086L23.9505 59.0184L24.4302 59.4697L24.9099 59.0184L24.4302 58.5086ZM48.8604 35.523L49.34 36.0329L50.6259 34.823H48.8604V35.523ZM38.2699 35.523H37.5699V36.223H38.2699V35.523ZM9.71212 0.7H38.2699V-0.7H9.71212V0.7ZM10.4121 35.523V0H9.01212V35.523H10.4121ZM0 36.223H9.71212V34.823H0V36.223ZM24.9099 57.9988L0.479672 35.0132L-0.479672 36.0329L23.9505 59.0184L24.9099 57.9988ZM48.3807 35.0132L23.9505 57.9988L24.9099 59.0184L49.34 36.0329L48.3807 35.0132ZM38.2699 36.223H48.8604V34.823H38.2699V36.223ZM37.5699 0V35.523H38.9699V0H37.5699Z" fill="#ACB5BD" mask="url(#path-1-inside-1)"/>
</svg>
