<svg xmlns="http://www.w3.org/2000/svg" xmlns:xlink="http://www.w3.org/1999/xlink"><symbol id="upload" viewBox="0 0 49 59"><mask id="a" fill="#fff"><path fill-rule="evenodd" clip-rule="evenodd" d="M38.27 0H9.712v35.523H0l24.43 22.986 24.43-22.986H38.27V0z"/></mask><path d="M9.712 0v-.7h-.7V0h.7zM38.27 0h.7v-.7h-.7V0zM9.712 35.523v.7h.7v-.7h-.7zm-9.712 0v-.7h-1.766l1.286 1.21.48-.51zm24.43 22.986l-.48.51.48.45.48-.45-.48-.51zm24.43-22.986l.48.51 1.286-1.21H48.86v.7zm-10.59 0h-.7v.7h.7v-.7zM9.712.7H38.27V-.7H9.712V.7zm.7 34.823V0h-1.4v35.523h1.4zM0 36.223h9.712v-1.4H0v1.4zm24.91 21.776L.48 35.013l-.96 1.02 24.43 22.985.96-1.02zm23.47-22.986L23.95 58l.96 1.02 24.43-22.986-.96-1.02zm-10.11 1.21h10.59v-1.4H38.27v1.4zM37.57 0v35.523h1.4V0h-1.4z" fill="#ACB5BD" mask="url(#a)"/></symbol></svg>